<svg width="84" height="84" viewBox="0 0 84 84" fill="none" xmlns="http://www.w3.org/2000/svg">
<path d="M75.1877 27.5038C75.2835 26.7788 75.3335 26.0538 75.3335 25.333C75.3335 15.4205 66.4043 7.46634 56.496 8.81217C53.6085 3.67467 48.1085 0.333008 42.0002 0.333008C35.8918 0.333008 30.3918 3.67467 27.5043 8.81217C17.5752 7.46634 8.66683 15.4205 8.66683 25.333C8.66683 26.0538 8.71683 26.7788 8.81266 27.5038C3.67516 30.3955 0.333496 35.8955 0.333496 41.9997C0.333496 48.1038 3.67516 53.6038 8.81266 56.4955C8.71654 57.2151 8.66782 57.9403 8.66683 58.6663C8.66683 68.5788 17.5752 76.5122 27.5043 75.1872C30.3918 80.3247 35.8918 83.6664 42.0002 83.6664C48.1085 83.6664 53.6085 80.3247 56.496 75.1872C66.4043 76.5122 75.3335 68.5788 75.3335 58.6663C75.3335 57.9455 75.2835 57.2205 75.1877 56.4955C80.3252 53.6038 83.6668 48.1038 83.6668 41.9997C83.6668 35.8955 80.3252 30.3955 75.1877 27.5038ZM37.646 60.3997L22.3668 44.9247L28.3002 39.0747L37.7043 48.5997L55.7335 30.708L61.6002 36.6247L37.646 60.3997Z" fill="#4C9863"/>
</svg>
