<svg width="21" height="20" viewBox="0 0 21 20" fill="none" xmlns="http://www.w3.org/2000/svg">
<path d="M6.5325 18.7499C14.08 18.7499 18.2087 12.4961 18.2087 7.08239C18.2087 6.90739 18.2087 6.72989 18.2013 6.55489C19.0051 5.973 19.6988 5.25258 20.25 4.42739C19.4991 4.75845 18.7035 4.97665 17.8888 5.07489C18.7469 4.56194 19.3897 3.75485 19.6975 2.80364C18.8912 3.28129 18.0088 3.61661 17.0887 3.79489C16.4702 3.13617 15.6518 2.69979 14.7601 2.55334C13.8685 2.40689 12.9534 2.55854 12.1567 2.98481C11.3599 3.41108 10.726 4.08818 10.3531 4.91122C9.98012 5.73425 9.88897 6.65731 10.0938 7.53739C8.46218 7.45558 6.86602 7.03172 5.4088 6.29332C3.95159 5.55491 2.66586 4.51844 1.635 3.25114C1.11168 4.15499 0.951967 5.22414 1.18831 6.24147C1.42465 7.2588 2.03932 8.14805 2.9075 8.72864C2.25692 8.70654 1.62065 8.53184 1.05 8.21864V8.27489C1.05112 9.22174 1.37913 10.1392 1.97859 10.8721C2.57805 11.605 3.41218 12.1085 4.34 12.2974C3.98783 12.3944 3.62404 12.4428 3.25875 12.4411C3.00123 12.4419 2.74423 12.4181 2.49125 12.3699C2.75348 13.185 3.26409 13.8976 3.95156 14.408C4.63903 14.9184 5.46892 15.201 6.325 15.2161C4.87069 16.3584 3.07425 16.9779 1.225 16.9749C0.899151 16.9763 0.573529 16.9575 0.25 16.9186C2.12689 18.1152 4.30662 18.7506 6.5325 18.7499Z" fill="#FFFDFA"/>
</svg>
