<svg width="26" height="26" viewBox="0 0 26 26" fill="none" xmlns="http://www.w3.org/2000/svg">
<path d="M0.558604 16.3349C0.600603 16.4935 0.673589 16.6422 0.773352 16.7724C0.873114 16.9027 0.997677 17.0118 1.13985 17.0937L3.52735 18.4737V21.2224C3.52735 21.5539 3.65905 21.8719 3.89347 22.1063C4.12789 22.3407 4.44583 22.4724 4.77735 22.4724H7.5261L8.90611 24.8599C9.01677 25.0491 9.17478 25.2062 9.36458 25.3158C9.55438 25.4254 9.76944 25.4837 9.9886 25.4849C10.2061 25.4849 10.4224 25.4274 10.6149 25.3162L12.9999 23.9374L15.3874 25.3174C15.6744 25.4829 16.0153 25.5279 16.3354 25.4423C16.6555 25.3568 16.9286 25.1478 17.0949 24.8612L18.4736 22.4737H21.2224C21.5539 22.4737 21.8718 22.342 22.1062 22.1076C22.3407 21.8731 22.4724 21.5552 22.4724 21.2237V18.4749L24.8599 17.0949C25.0021 17.0127 25.1267 16.9033 25.2266 16.773C25.3265 16.6426 25.3997 16.4938 25.4421 16.3351C25.4845 16.1764 25.4952 16.0109 25.4735 15.8481C25.4519 15.6853 25.3984 15.5283 25.3161 15.3862L23.9374 12.9999L25.3174 10.6149C25.4832 10.328 25.5283 9.98691 25.4428 9.66671C25.3572 9.34651 25.148 9.0734 24.8611 8.90743L22.4736 7.52743V4.77743C22.4736 4.44591 22.3419 4.12796 22.1075 3.89354C21.8731 3.65912 21.5551 3.52743 21.2236 3.52743H18.4749L17.0961 1.14118C16.9296 0.854823 16.657 0.645559 16.3374 0.558677C16.1788 0.515697 16.0133 0.504614 15.8504 0.526071C15.6876 0.547529 15.5306 0.601099 15.3886 0.683677L12.9999 2.06243L10.6136 0.682427C10.3267 0.51657 9.98559 0.471461 9.66539 0.55702C9.34519 0.642578 9.07208 0.851798 8.90611 1.13868L7.5261 3.52618H4.77735C4.44583 3.52618 4.12789 3.65787 3.89347 3.89229C3.65905 4.12671 3.52735 4.44466 3.52735 4.77618V7.52493L1.13985 8.90493C0.853057 9.07162 0.644009 9.34517 0.558493 9.66568C0.472978 9.98619 0.517966 10.3275 0.683604 10.6149L2.0636 12.9999L0.683604 15.3849C0.518588 15.6728 0.473677 16.0141 0.558604 16.3349ZM12.9999 14.2499C8.64985 14.2499 7.99985 11.9012 7.99985 10.4999C7.99985 8.89118 9.2861 7.27118 11.7499 6.85618V5.51493H14.2499V6.90118C16.4174 7.41368 17.2499 9.21743 17.2499 10.4999H15.9999L14.7499 10.5224C14.7324 10.0474 14.4811 9.24993 12.9999 9.24993C11.3761 9.24993 10.4999 9.89368 10.4999 10.4999C10.4999 10.9674 10.4999 11.7499 12.9999 11.7499C17.3499 11.7499 17.9999 14.0987 17.9999 15.4999C17.9999 17.1087 16.7136 18.7287 14.2499 19.1437V20.4999H11.7499V19.1499C8.8261 18.6912 7.99985 16.6462 7.99985 15.4999H10.4999C10.5136 15.6787 10.6986 16.7499 12.9999 16.7499C14.7249 16.7499 15.4999 16.0187 15.4999 15.4999C15.4999 15.0937 15.4999 14.2499 12.9999 14.2499Z" fill="#234439"/>
</svg>
