<svg width="32" height="30" viewBox="0 0 32 30" fill="none" xmlns="http://www.w3.org/2000/svg">
<path d="M16.7926 15.9576L31.5296 4.42365C31.7058 4.28812 31.8052 4.07578 31.8052 3.85441V0.362154C31.8052 0.0594622 31.4573 -0.107696 31.2224 0.0775332L15.9025 12.0678L0.582716 0.0775332C0.529448 0.0358195 0.465515 0.00993688 0.398232 0.00284446C0.330946 -0.00424795 0.263023 0.00773651 0.20223 0.0374269C0.141436 0.0671173 0.0902214 0.113316 0.0544453 0.17074C0.0186691 0.228165 -0.000226974 0.294497 -8.01086e-05 0.362154V3.85441C-8.01086e-05 4.07578 0.103827 4.28812 0.275503 4.42365L15.008 15.9576C15.5366 16.3687 16.2685 16.3687 16.7926 15.9576ZM16.7926 29.6917L31.5296 18.1577C31.7058 18.0222 31.8052 17.8099 31.8052 17.5885V14.0962C31.8052 13.7935 31.4573 13.6264 31.2224 13.8116L15.9025 25.8018L0.582716 13.8116C0.529448 13.7699 0.465515 13.744 0.398232 13.7369C0.330946 13.7298 0.263023 13.7418 0.20223 13.7715C0.141436 13.8012 0.0902214 13.8474 0.0544453 13.9048C0.0186691 13.9623 -0.000226974 14.0286 -8.01086e-05 14.0962V17.5885C-8.01086e-05 17.8099 0.103827 18.0222 0.275503 18.1577L15.008 29.6917C15.5366 30.1028 16.2685 30.1028 16.7926 29.6917Z" fill="#FFFDFA"/>
</svg>
