<svg width="21" height="20" viewBox="0 0 21 20" fill="none" xmlns="http://www.w3.org/2000/svg">
<path d="M10.2501 5.99423C8.0333 5.99423 6.24423 7.7833 6.24423 10.0001C6.24423 12.2169 8.0333 14.0059 10.2501 14.0059C12.4669 14.0059 14.256 12.2169 14.256 10.0001C14.256 7.7833 12.4669 5.99423 10.2501 5.99423ZM10.2501 12.6036C8.8165 12.6036 7.64658 11.4337 7.64658 10.0001C7.64658 8.5665 8.8165 7.39658 10.2501 7.39658C11.6837 7.39658 12.8536 8.5665 12.8536 10.0001C12.8536 11.4337 11.6837 12.6036 10.2501 12.6036ZM14.42 4.89658C13.9024 4.89658 13.4845 5.31455 13.4845 5.83212C13.4845 6.3497 13.9024 6.76767 14.42 6.76767C14.9376 6.76767 15.3556 6.35165 15.3556 5.83212C15.3557 5.70922 15.3316 5.5875 15.2847 5.47392C15.2377 5.36035 15.1688 5.25715 15.0819 5.17025C14.995 5.08334 14.8918 5.01444 14.7782 4.96748C14.6646 4.92052 14.5429 4.89642 14.42 4.89658ZM18.0587 10.0001C18.0587 8.92197 18.0685 7.85361 18.0079 6.77744C17.9474 5.52744 17.6622 4.41806 16.7481 3.504C15.8321 2.58798 14.7247 2.30478 13.4747 2.24423C12.3966 2.18369 11.3282 2.19345 10.252 2.19345C9.17392 2.19345 8.10556 2.18369 7.02939 2.24423C5.77939 2.30478 4.67001 2.58994 3.75595 3.504C2.83994 4.42001 2.55673 5.52744 2.49619 6.77744C2.43564 7.85556 2.44541 8.92392 2.44541 10.0001C2.44541 11.0763 2.43564 12.1466 2.49619 13.2227C2.55673 14.4727 2.84189 15.5821 3.75595 16.4962C4.67197 17.4122 5.77939 17.6954 7.02939 17.7559C8.10751 17.8165 9.17587 17.8067 10.252 17.8067C11.3302 17.8067 12.3985 17.8165 13.4747 17.7559C14.7247 17.6954 15.8341 17.4102 16.7481 16.4962C17.6642 15.5802 17.9474 14.4727 18.0079 13.2227C18.0704 12.1466 18.0587 11.0782 18.0587 10.0001ZM16.3399 14.6056C16.1974 14.961 16.0255 15.2267 15.7501 15.5001C15.4747 15.7755 15.211 15.9474 14.8556 16.0899C13.8282 16.4981 11.3888 16.4063 10.2501 16.4063C9.11142 16.4063 6.67001 16.4981 5.64267 16.0919C5.2872 15.9493 5.02158 15.7774 4.74814 15.502C4.47275 15.2267 4.30087 14.963 4.1583 14.6075C3.75205 13.5782 3.84384 11.1388 3.84384 10.0001C3.84384 8.86142 3.75205 6.42001 4.1583 5.39267C4.30087 5.0372 4.47275 4.77158 4.74814 4.49814C5.02353 4.2247 5.2872 4.05087 5.64267 3.9083C6.67001 3.50205 9.11142 3.59384 10.2501 3.59384C11.3888 3.59384 13.8302 3.50205 14.8575 3.9083C15.213 4.05087 15.4786 4.22275 15.752 4.49814C16.0274 4.77353 16.1993 5.0372 16.3419 5.39267C16.7481 6.42001 16.6563 8.86142 16.6563 10.0001C16.6563 11.1388 16.7481 13.5782 16.3399 14.6056Z" fill="#FFFDFA"/>
</svg>
