<svg width="51" height="50" viewBox="0 0 51 50" fill="none" xmlns="http://www.w3.org/2000/svg">
<path d="M41.125 20.3125C41.125 19.8981 40.9604 19.5007 40.6674 19.2076C40.3743 18.9146 39.9769 18.75 39.5625 18.75H23.9375C23.5231 18.75 23.1257 18.9146 22.8326 19.2076C22.5396 19.5007 22.375 19.8981 22.375 20.3125C22.375 20.7269 22.5396 21.1243 22.8326 21.4174C23.1257 21.7104 23.5231 21.875 23.9375 21.875H39.5625C39.9769 21.875 40.3743 21.7104 40.6674 21.4174C40.9604 21.1243 41.125 20.7269 41.125 20.3125ZM41.125 29.6875C41.125 29.2731 40.9604 28.8757 40.6674 28.5826C40.3743 28.2896 39.9769 28.125 39.5625 28.125H23.9375C23.5231 28.125 23.1257 28.2896 22.8326 28.5826C22.5396 28.8757 22.375 29.2731 22.375 29.6875C22.375 30.1019 22.5396 30.4993 22.8326 30.7924C23.1257 31.0854 23.5231 31.25 23.9375 31.25H39.5625C39.9769 31.25 40.3743 31.0854 40.6674 30.7924C40.9604 30.4993 41.125 30.1019 41.125 29.6875ZM39.5625 37.5C39.9769 37.5 40.3743 37.6646 40.6674 37.9576C40.9604 38.2507 41.125 38.6481 41.125 39.0625C41.125 39.4769 40.9604 39.8743 40.6674 40.1674C40.3743 40.4604 39.9769 40.625 39.5625 40.625H23.9375C23.5231 40.625 23.1257 40.4604 22.8326 40.1674C22.5396 39.8743 22.375 39.4769 22.375 39.0625C22.375 38.6481 22.5396 38.2507 22.8326 37.9576C23.1257 37.6646 23.5231 37.5 23.9375 37.5H39.5625Z" fill="#FFFDFA"/>
<path d="M44.25 0C45.9076 0 47.4973 0.65848 48.6694 1.83058C49.8415 3.00269 50.5 4.5924 50.5 6.25V43.75C50.5 45.4076 49.8415 46.9973 48.6694 48.1694C47.4973 49.3415 45.9076 50 44.25 50H6.75C5.0924 50 3.50269 49.3415 2.33058 48.1694C1.15848 46.9973 0.5 45.4076 0.5 43.75V6.25C0.5 4.5924 1.15848 3.00269 2.33058 1.83058C3.50269 0.65848 5.0924 0 6.75 0L44.25 0ZM6.75 3.125C5.9212 3.125 5.12634 3.45424 4.54029 4.04029C3.95424 4.62634 3.625 5.4212 3.625 6.25V9.375H47.375V6.25C47.375 5.4212 47.0458 4.62634 46.4597 4.04029C45.8737 3.45424 45.0788 3.125 44.25 3.125H6.75ZM3.625 12.5V43.75C3.625 44.5788 3.95424 45.3737 4.54029 45.9597C5.12634 46.5458 5.9212 46.875 6.75 46.875H13V12.5H3.625ZM16.125 12.5V46.875H44.25C45.0788 46.875 45.8737 46.5458 46.4597 45.9597C47.0458 45.3737 47.375 44.5788 47.375 43.75V12.5H16.125Z" fill="#FFFDFA"/>
</svg>
